<svg viewBox="0 0 512 512" fill="none" xmlns="http://www.w3.org/2000/svg">
    <!-- Background -->
    <rect width="512" height="512" rx="96" fill="#0a0a0b"/>
    <!-- Flame -->
    <path d="M256 64 C256 64 112 208 112 320 C112 424 176 480 256 480 C336 480 400 424 400 320 C400 208 256 64 256 64Z" fill="#ff6b35"/>
    <path d="M256 128 C256 128 152 248 152 336 C152 408 200 456 256 456 C312 456 360 408 360 336 C360 248 256 128 256 128Z" fill="#ffb347"/>
    <path d="M256 192 C256 192 192 288 192 360 C192 416 220 448 256 448 C292 448 320 416 320 360 C320 288 256 192 256 192Z" fill="#fff5e6"/>
</svg>